<?xml version="1.0" encoding="UTF-8" standalone="no"?>
<!DOCTYPE svg PUBLIC "-//W3C//DTD SVG 1.1//EN"
 "http://www.w3.org/Graphics/SVG/1.1/DTD/svg11.dtd">
<!-- Generated by graphviz version 2.43.0 (0)
 -->
<!-- Title: Classes Pages: 1 -->
<svg width="778pt" height="512pt"
 viewBox="0.00 0.00 777.69 512.00" xmlns="http://www.w3.org/2000/svg" xmlns:xlink="http://www.w3.org/1999/xlink">
<style> text { font-weight: bold; } </style>
<g id="graph0" class="graph" transform="scale(1 1) rotate(0) translate(4 508)">
<title>Classes</title>
<polygon fill="#81a011" stroke="transparent" points="-4,4 -4,-508 773.69,-508 773.69,4 -4,4"/>
<g id="clust1" class="cluster">
<title>cluster_Internal</title>
<path fill="#165fcc" stroke="#165fcc" d="M20,-174C20,-174 745,-174 745,-174 751,-174 757,-180 757,-186 757,-186 757,-484 757,-484 757,-490 751,-496 745,-496 745,-496 20,-496 20,-496 14,-496 8,-490 8,-484 8,-484 8,-186 8,-186 8,-180 14,-174 20,-174"/>
<text text-anchor="middle" x="382.5" y="-181.8" font-family="monospace" font-size="14.00" fill="white">Internal Code</text>
</g>
<g id="clust2" class="cluster">
<title>cluster_Controllers</title>
<path fill="#a07511" stroke="#a07511" d="M323,-303C323,-303 737,-303 737,-303 743,-303 749,-309 749,-315 749,-315 749,-420 749,-420 749,-426 743,-432 737,-432 737,-432 323,-432 323,-432 317,-432 311,-426 311,-420 311,-420 311,-315 311,-315 311,-309 317,-303 323,-303"/>
<text text-anchor="middle" x="530" y="-325.8" font-family="monospace" font-size="14.00" fill="white">Controllers</text>
<text text-anchor="middle" x="530" y="-310.8" font-family="monospace" font-size="14.00" fill="white">(User Interface Layer)</text>
</g>
<g id="clust3" class="cluster">
<title>cluster_UserController</title>
<path fill="#cc9516" stroke="#cc9516" d="M579,-349C579,-349 729,-349 729,-349 735,-349 741,-355 741,-361 741,-361 741,-412 741,-412 741,-418 735,-424 729,-424 729,-424 579,-424 579,-424 573,-424 567,-418 567,-412 567,-412 567,-361 567,-361 567,-355 573,-349 579,-349"/>
<text text-anchor="middle" x="654" y="-356.8" font-family="monospace" font-size="14.00" fill="white">/user</text>
</g>
<g id="clust4" class="cluster">
<title>cluster_Middleware</title>
<path fill="#cc9516" stroke="#cc9516" d="M425,-349C425,-349 547,-349 547,-349 553,-349 559,-355 559,-361 559,-361 559,-412 559,-412 559,-418 553,-424 547,-424 547,-424 425,-424 425,-424 419,-424 413,-418 413,-412 413,-412 413,-361 413,-361 413,-355 419,-349 425,-349"/>
<text text-anchor="middle" x="486" y="-356.8" font-family="monospace" font-size="14.00" fill="white">Middleware</text>
</g>
<g id="clust5" class="cluster">
<title>cluster_Models</title>
<path fill="#a01d11" stroke="#a01d11" d="M247,-205C247,-205 427,-205 427,-205 433,-205 439,-211 439,-217 439,-217 439,-283 439,-283 439,-289 433,-295 427,-295 427,-295 247,-295 247,-295 241,-295 235,-289 235,-283 235,-283 235,-217 235,-217 235,-211 241,-205 247,-205"/>
<text text-anchor="middle" x="337" y="-227.8" font-family="monospace" font-size="14.00" fill="white">Models</text>
<text text-anchor="middle" x="337" y="-212.8" font-family="monospace" font-size="14.00" fill="white">(Business Logic Layer)</text>
</g>
<g id="clust6" class="cluster">
<title>cluster_Services</title>
<path fill="#11a067" stroke="#11a067" d="M28,-334C28,-334 277,-334 277,-334 283,-334 289,-340 289,-346 289,-346 289,-412 289,-412 289,-418 283,-424 277,-424 277,-424 28,-424 28,-424 22,-424 16,-418 16,-412 16,-412 16,-346 16,-346 16,-340 22,-334 28,-334"/>
<text text-anchor="middle" x="152.5" y="-356.8" font-family="monospace" font-size="14.00" fill="white">Services</text>
<text text-anchor="middle" x="152.5" y="-341.8" font-family="monospace" font-size="14.00" fill="white">(Data Access Layer)</text>
</g>
<g id="clust8" class="cluster">
<title>cluster_External</title>
<path fill="#9e16cc" stroke="#9e16cc" d="M166,-91C166,-91 513,-91 513,-91 519,-91 525,-97 525,-103 525,-103 525,-154 525,-154 525,-160 519,-166 513,-166 513,-166 166,-166 166,-166 160,-166 154,-160 154,-154 154,-154 154,-103 154,-103 154,-97 160,-91 166,-91"/>
<text text-anchor="middle" x="339.5" y="-98.8" font-family="monospace" font-size="14.00" fill="white">External Code</text>
</g>
<g id="clust9" class="cluster">
<title>cluster_ServiceProviders</title>
<path fill="#cc165c" stroke="#cc165c" d="M48,-8C48,-8 232,-8 232,-8 238,-8 244,-14 244,-20 244,-20 244,-71 244,-71 244,-77 238,-83 232,-83 232,-83 48,-83 48,-83 42,-83 36,-77 36,-71 36,-71 36,-20 36,-20 36,-14 42,-8 48,-8"/>
<text text-anchor="middle" x="140" y="-15.8" font-family="monospace" font-size="14.00" fill="white">Service Providers</text>
</g>
<!-- create -->
<g id="node1" class="node">
<title>create</title>
<path fill="none" stroke="white" stroke-width="2" d="M721,-416C721,-416 671,-416 671,-416 665,-416 659,-410 659,-404 659,-404 659,-392 659,-392 659,-386 665,-380 671,-380 671,-380 721,-380 721,-380 727,-380 733,-386 733,-392 733,-392 733,-404 733,-404 733,-410 727,-416 721,-416"/>
<text text-anchor="middle" x="696" y="-394.3" font-family="monospace" font-size="14.00" fill="white">/create</text>
</g>
<!-- User -->
<g id="node6" class="node">
<title>User</title>
<path fill="none" stroke="white" stroke-width="2" d="M419,-287C419,-287 389,-287 389,-287 383,-287 377,-281 377,-275 377,-275 377,-263 377,-263 377,-257 383,-251 389,-251 389,-251 419,-251 419,-251 425,-251 431,-257 431,-263 431,-263 431,-275 431,-275 431,-281 425,-287 419,-287"/>
<text text-anchor="middle" x="404" y="-265.3" font-family="monospace" font-size="14.00" fill="white">User</text>
</g>
<!-- create&#45;&gt;User -->
<g id="edge10" class="edge">
<title>create&#45;&gt;User</title>
<path fill="none" stroke="white" stroke-width="2" d="M692.76,-379.93C687.68,-358.27 675.65,-321.48 650,-303 617.44,-279.53 501.97,-272.74 441.52,-270.79"/>
<polygon fill="white" stroke="white" stroke-width="2" points="441.36,-267.28 431.26,-270.48 441.15,-274.28 441.36,-267.28"/>
</g>
<!-- login -->
<g id="node2" class="node">
<title>login</title>
<path fill="none" stroke="white" stroke-width="2" d="M629,-416C629,-416 587,-416 587,-416 581,-416 575,-410 575,-404 575,-404 575,-392 575,-392 575,-386 581,-380 587,-380 587,-380 629,-380 629,-380 635,-380 641,-386 641,-392 641,-392 641,-404 641,-404 641,-410 635,-416 629,-416"/>
<text text-anchor="middle" x="608" y="-394.3" font-family="monospace" font-size="14.00" fill="white">/login</text>
</g>
<!-- btcRate -->
<g id="node3" class="node">
<title>btcRate</title>
<path fill="none" stroke="white" stroke-width="2" d="M390.5,-416C390.5,-416 331.5,-416 331.5,-416 325.5,-416 319.5,-410 319.5,-404 319.5,-404 319.5,-392 319.5,-392 319.5,-386 325.5,-380 331.5,-380 331.5,-380 390.5,-380 390.5,-380 396.5,-380 402.5,-386 402.5,-392 402.5,-392 402.5,-404 402.5,-404 402.5,-410 396.5,-416 390.5,-416"/>
<text text-anchor="middle" x="361" y="-394.3" font-family="monospace" font-size="14.00" fill="white">/btcRate</text>
</g>
<!-- auth -->
<g id="node4" class="node">
<title>auth</title>
<path fill="none" stroke="white" stroke-width="2" d="M539,-416C539,-416 509,-416 509,-416 503,-416 497,-410 497,-404 497,-404 497,-392 497,-392 497,-386 503,-380 509,-380 509,-380 539,-380 539,-380 545,-380 551,-386 551,-392 551,-392 551,-404 551,-404 551,-410 545,-416 539,-416"/>
<text text-anchor="middle" x="524" y="-394.3" font-family="monospace" font-size="14.00" fill="white">auth</text>
</g>
<!-- parse -->
<g id="node5" class="node">
<title>parse</title>
<path fill="none" stroke="white" stroke-width="2" d="M467,-416C467,-416 433,-416 433,-416 427,-416 421,-410 421,-404 421,-404 421,-392 421,-392 421,-386 427,-380 433,-380 433,-380 467,-380 467,-380 473,-380 479,-386 479,-392 479,-392 479,-404 479,-404 479,-410 473,-416 467,-416"/>
<text text-anchor="middle" x="450" y="-394.3" font-family="monospace" font-size="14.00" fill="white">parse</text>
</g>
<!-- bcrypt -->
<g id="node12" class="node">
<title>bcrypt</title>
<path fill="none" stroke="white" stroke-width="2" d="M413,-158C413,-158 371,-158 371,-158 365,-158 359,-152 359,-146 359,-146 359,-134 359,-134 359,-128 365,-122 371,-122 371,-122 413,-122 413,-122 419,-122 425,-128 425,-134 425,-134 425,-146 425,-146 425,-152 419,-158 413,-158"/>
<text text-anchor="middle" x="392" y="-136.3" font-family="monospace" font-size="14.00" fill="white">bcrypt</text>
</g>
<!-- User&#45;&gt;bcrypt -->
<g id="edge15" class="edge">
<title>User&#45;&gt;bcrypt</title>
<path fill="none" stroke="white" stroke-width="2" d="M402.38,-250.87C400.38,-229.66 396.94,-193.28 394.57,-168.23"/>
<polygon fill="white" stroke="white" stroke-width="2" points="398.06,-167.89 393.63,-158.26 391.09,-168.55 398.06,-167.89"/>
</g>
<!-- TokenFactory -->
<g id="node7" class="node">
<title>TokenFactory</title>
<path fill="none" stroke="white" stroke-width="2" d="M347,-287C347,-287 255,-287 255,-287 249,-287 243,-281 243,-275 243,-275 243,-263 243,-263 243,-257 249,-251 255,-251 255,-251 347,-251 347,-251 353,-251 359,-257 359,-263 359,-263 359,-275 359,-275 359,-281 353,-287 347,-287"/>
<text text-anchor="middle" x="301" y="-265.3" font-family="monospace" font-size="14.00" fill="white">TokenFactory</text>
</g>
<!-- jwt -->
<g id="node13" class="node">
<title>jwt</title>
<path fill="none" stroke="white" stroke-width="2" d="M329,-158C329,-158 299,-158 299,-158 293,-158 287,-152 287,-146 287,-146 287,-134 287,-134 287,-128 293,-122 299,-122 299,-122 329,-122 329,-122 335,-122 341,-128 341,-134 341,-134 341,-146 341,-146 341,-152 335,-158 329,-158"/>
<text text-anchor="middle" x="314" y="-136.3" font-family="monospace" font-size="14.00" fill="white">jwt</text>
</g>
<!-- TokenFactory&#45;&gt;jwt -->
<g id="edge17" class="edge">
<title>TokenFactory&#45;&gt;jwt</title>
<path fill="none" stroke="white" stroke-width="2" d="M302.75,-250.87C304.92,-229.66 308.65,-193.28 311.21,-168.23"/>
<polygon fill="white" stroke="white" stroke-width="2" points="314.7,-168.57 312.23,-158.26 307.73,-167.85 314.7,-168.57"/>
</g>
<!-- UserStorage -->
<g id="node8" class="node">
<title>UserStorage</title>
<path fill="none" stroke="white" stroke-width="2" d="M118.5,-416C118.5,-416 35.5,-416 35.5,-416 29.5,-416 23.5,-410 23.5,-404 23.5,-404 23.5,-392 23.5,-392 23.5,-386 29.5,-380 35.5,-380 35.5,-380 118.5,-380 118.5,-380 124.5,-380 130.5,-386 130.5,-392 130.5,-392 130.5,-404 130.5,-404 130.5,-410 124.5,-416 118.5,-416"/>
<text text-anchor="middle" x="77" y="-394.3" font-family="monospace" font-size="14.00" fill="white">UserStorage</text>
</g>
<!-- UserStorage&#45;&gt;User -->
<g id="edge11" class="edge">
<title>UserStorage&#45;&gt;User</title>
<path fill="none" stroke="white" stroke-width="2" d="M82.91,-379.74C91.55,-357.5 109.96,-319.71 140,-303 162.15,-290.68 343.95,-303 368,-295 370.17,-294.28 372.33,-293.38 374.45,-292.36"/>
<polygon fill="white" stroke="white" stroke-width="2" points="376.44,-295.25 383.39,-287.25 372.97,-289.17 376.44,-295.25"/>
</g>
<!-- Filesystem -->
<g id="node17" class="node">
<title>Filesystem</title>
<path fill="none" stroke="white" stroke-width="2" d="M131.5,-75C131.5,-75 56.5,-75 56.5,-75 50.5,-75 44.5,-69 44.5,-63 44.5,-63 44.5,-51 44.5,-51 44.5,-45 50.5,-39 56.5,-39 56.5,-39 131.5,-39 131.5,-39 137.5,-39 143.5,-45 143.5,-51 143.5,-51 143.5,-63 143.5,-63 143.5,-69 137.5,-75 131.5,-75"/>
<text text-anchor="middle" x="94" y="-53.3" font-family="monospace" font-size="14.00" fill="white">Filesystem</text>
</g>
<!-- UserStorage&#45;&gt;Filesystem -->
<g id="edge13" class="edge">
<title>UserStorage&#45;&gt;Filesystem</title>
<path fill="none" stroke="white" stroke-width="2" d="M77.87,-379.72C80.63,-324.64 89.24,-152.83 92.62,-85.48"/>
<polygon fill="white" stroke="white" stroke-width="2" points="96.13,-85.41 93.14,-75.24 89.14,-85.05 96.13,-85.41"/>
</g>
<!-- BtcRateService -->
<g id="node9" class="node">
<title>BtcRateService</title>
<path fill="none" stroke="white" stroke-width="2" d="M269,-416C269,-416 161,-416 161,-416 155,-416 149,-410 149,-404 149,-404 149,-392 149,-392 149,-386 155,-380 161,-380 161,-380 269,-380 269,-380 275,-380 281,-386 281,-392 281,-392 281,-404 281,-404 281,-410 275,-416 269,-416"/>
<text text-anchor="middle" x="215" y="-394.3" font-family="monospace" font-size="14.00" fill="white">BtcRateService</text>
</g>
<!-- coinpaprika -->
<g id="node14" class="node">
<title>coinpaprika</title>
<path fill="none" stroke="white" stroke-width="2" d="M256.5,-158C256.5,-158 173.5,-158 173.5,-158 167.5,-158 161.5,-152 161.5,-146 161.5,-146 161.5,-134 161.5,-134 161.5,-128 167.5,-122 173.5,-122 173.5,-122 256.5,-122 256.5,-122 262.5,-122 268.5,-128 268.5,-134 268.5,-134 268.5,-146 268.5,-146 268.5,-152 262.5,-158 256.5,-158"/>
<text text-anchor="middle" x="215" y="-136.3" font-family="monospace" font-size="14.00" fill="white">coinpaprika</text>
</g>
<!-- BtcRateService&#45;&gt;coinpaprika -->
<g id="edge16" class="edge">
<title>BtcRateService&#45;&gt;coinpaprika</title>
<path fill="none" stroke="white" stroke-width="2" d="M215,-379.81C215,-336.27 215,-221.37 215,-168.43"/>
<polygon fill="white" stroke="white" stroke-width="2" points="218.5,-168.12 215,-158.12 211.5,-168.12 218.5,-168.12"/>
</g>
<!-- index -->
<g id="node10" class="node">
<title>index</title>
<path fill="none" stroke="white" stroke-width="2" d="M286.5,-488C286.5,-488 227.5,-488 227.5,-488 221.5,-488 215.5,-482 215.5,-476 215.5,-476 215.5,-464 215.5,-464 215.5,-458 221.5,-452 227.5,-452 227.5,-452 286.5,-452 286.5,-452 292.5,-452 298.5,-458 298.5,-464 298.5,-464 298.5,-476 298.5,-476 298.5,-482 292.5,-488 286.5,-488"/>
<text text-anchor="middle" x="257" y="-466.3" font-family="monospace" font-size="14.00" fill="white">index.js</text>
</g>
<!-- index&#45;&gt;TokenFactory -->
<g id="edge4" class="edge">
<title>index&#45;&gt;TokenFactory</title>
<path fill="none" stroke="white" stroke-width="2" d="M278.72,-451.83C284.38,-446.16 289.78,-439.4 293,-432 303.19,-408.59 302.96,-337.03 301.96,-297.31"/>
<polygon fill="white" stroke="white" stroke-width="2" points="305.45,-297.14 301.67,-287.24 298.45,-297.34 305.45,-297.14"/>
</g>
<!-- index&#45;&gt;UserStorage -->
<g id="edge3" class="edge">
<title>index&#45;&gt;UserStorage</title>
<path fill="none" stroke="white" stroke-width="2" d="M215.48,-457.81C192.83,-451.22 164.49,-442.19 140,-432 132.05,-428.69 123.76,-424.74 115.9,-420.74"/>
<polygon fill="white" stroke="white" stroke-width="2" points="117.41,-417.57 106.92,-416.05 114.17,-423.78 117.41,-417.57"/>
</g>
<!-- index&#45;&gt;BtcRateService -->
<g id="edge2" class="edge">
<title>index&#45;&gt;BtcRateService</title>
<path fill="none" stroke="white" stroke-width="2" d="M246.62,-451.7C241.74,-443.56 235.81,-433.69 230.42,-424.7"/>
<polygon fill="white" stroke="white" stroke-width="2" points="233.41,-422.88 225.26,-416.1 227.41,-426.48 233.41,-422.88"/>
</g>
<!-- App -->
<g id="node11" class="node">
<title>App</title>
<path fill="none" stroke="white" stroke-width="2" d="M539,-488C539,-488 509,-488 509,-488 503,-488 497,-482 497,-476 497,-476 497,-464 497,-464 497,-458 503,-452 509,-452 509,-452 539,-452 539,-452 545,-452 551,-458 551,-464 551,-464 551,-476 551,-476 551,-482 545,-488 539,-488"/>
<text text-anchor="middle" x="524" y="-466.3" font-family="monospace" font-size="14.00" fill="white">App</text>
</g>
<!-- index&#45;&gt;App -->
<g id="edge1" class="edge">
<title>index&#45;&gt;App</title>
<path fill="none" stroke="white" stroke-width="2" d="M298.72,-470C361.37,-470 424.02,-470 486.67,-470"/>
<polygon fill="white" stroke="white" stroke-width="2" points="486.72,-473.5 496.72,-470 486.72,-466.5 486.72,-473.5"/>
</g>
<!-- App&#45;&gt;create -->
<g id="edge6" class="edge">
<title>App&#45;&gt;create</title>
<path fill="none" stroke="white" stroke-width="2" d="M551.02,-463.83C577.22,-458.19 617.63,-447.8 650,-432 655.8,-429.17 661.64,-425.62 667.14,-421.91"/>
<polygon fill="white" stroke="white" stroke-width="2" points="669.29,-424.67 675.41,-416.03 665.24,-418.97 669.29,-424.67"/>
</g>
<!-- App&#45;&gt;login -->
<g id="edge7" class="edge">
<title>App&#45;&gt;login</title>
<path fill="none" stroke="white" stroke-width="2" d="M544.76,-451.7C555.24,-442.97 568.11,-432.24 579.5,-422.75"/>
<polygon fill="white" stroke="white" stroke-width="2" points="582.03,-425.19 587.47,-416.1 577.55,-419.82 582.03,-425.19"/>
</g>
<!-- App&#45;&gt;btcRate -->
<g id="edge9" class="edge">
<title>App&#45;&gt;btcRate</title>
<path fill="none" stroke="white" stroke-width="2" d="M496.65,-462.6C472.79,-456.47 437.61,-446.06 409,-432 403.16,-429.13 397.23,-425.62 391.62,-421.97"/>
<polygon fill="white" stroke="white" stroke-width="2" points="393.36,-418.92 383.12,-416.2 389.42,-424.71 393.36,-418.92"/>
</g>
<!-- App&#45;&gt;auth -->
<g id="edge8" class="edge">
<title>App&#45;&gt;auth</title>
<path fill="none" stroke="white" stroke-width="2" d="M524,-451.7C524,-443.98 524,-434.71 524,-426.11"/>
<polygon fill="white" stroke="white" stroke-width="2" points="527.5,-426.1 524,-416.1 520.5,-426.1 527.5,-426.1"/>
</g>
<!-- App&#45;&gt;parse -->
<g id="edge5" class="edge">
<title>App&#45;&gt;parse</title>
<path fill="none" stroke="white" stroke-width="2" d="M505.71,-451.7C496.57,-443.05 485.36,-432.45 475.4,-423.03"/>
<polygon fill="white" stroke="white" stroke-width="2" points="477.75,-420.43 468.08,-416.1 472.94,-425.52 477.75,-420.43"/>
</g>
<!-- express -->
<g id="node15" class="node">
<title>express</title>
<path fill="none" stroke="white" stroke-width="2" d="M505,-158C505,-158 455,-158 455,-158 449,-158 443,-152 443,-146 443,-146 443,-134 443,-134 443,-128 449,-122 455,-122 455,-122 505,-122 505,-122 511,-122 517,-128 517,-134 517,-134 517,-146 517,-146 517,-152 511,-158 505,-158"/>
<text text-anchor="middle" x="480" y="-136.3" font-family="monospace" font-size="14.00" fill="white">express</text>
</g>
<!-- App&#45;&gt;express -->
<g id="edge14" class="edge">
<title>App&#45;&gt;express</title>
<path fill="none" stroke="white" stroke-width="2" d="M551.08,-468.64C604.5,-467.3 720.43,-461.02 745,-432 782.04,-388.24 773.04,-353.01 745,-303 698.31,-219.74 589.47,-174.16 526.77,-153.97"/>
<polygon fill="white" stroke="white" stroke-width="2" points="527.7,-150.59 517.11,-150.94 525.61,-157.27 527.7,-150.59"/>
</g>
<!-- Network -->
<g id="node16" class="node">
<title>Network</title>
<path fill="none" stroke="white" stroke-width="2" d="M224,-75C224,-75 174,-75 174,-75 168,-75 162,-69 162,-63 162,-63 162,-51 162,-51 162,-45 168,-39 174,-39 174,-39 224,-39 224,-39 230,-39 236,-45 236,-51 236,-51 236,-63 236,-63 236,-69 230,-75 224,-75"/>
<text text-anchor="middle" x="199" y="-53.3" font-family="monospace" font-size="14.00" fill="white">Network</text>
</g>
<!-- coinpaprika&#45;&gt;Network -->
<g id="edge12" class="edge">
<title>coinpaprika&#45;&gt;Network</title>
<path fill="none" stroke="white" stroke-width="2" d="M211.61,-121.82C209.51,-111.19 206.76,-97.31 204.37,-85.2"/>
<polygon fill="white" stroke="white" stroke-width="2" points="207.76,-84.29 202.39,-75.15 200.89,-85.64 207.76,-84.29"/>
</g>
</g>
</svg>
